<svg width="867" height="805" viewBox="0 0 867 805" fill="none" xmlns="http://www.w3.org/2000/svg">
<path d="M584.198 393.327C614.662 542.28 631.288 625.222 602.103 699.462C505.86 682.209 469.017 621.287 421.602 457.826C400.451 248.112 420.758 176.213 452.7 41.8979C475.984 37.9861 526.361 179.951 584.198 393.327Z" fill="#FFCACA" stroke="black"/>
<path d="M454.083 42.3744C447.302 107.158 456.928 173.959 495.5 270.5" stroke="black"/>
<path d="M546.368 390.264C588.467 530.859 611.616 609.149 593.992 679.431C508.443 663.578 470.008 606.188 411.641 451.964C371.286 253.916 342.497 213.216 356.231 86.1592C376.081 82.3544 473.708 188.926 546.368 390.264Z" fill="#FFCACA" stroke="black"/>
<path d="M357.95 87.4243C344.267 100.504 384.585 171.367 476.088 351.473" stroke="black"/>
<path d="M467.867 427.25C444.905 587.78 432.42 677.078 460.546 745.181C545.894 701.705 577.033 629.504 614.702 449.586C627.642 229.408 607.5 161.317 575.219 32.5071C554.342 34.7546 513.423 193.48 467.867 427.25Z" fill="#FFCACA" stroke="black"/>
<path d="M575.125 32.625C560.769 42.7236 542.907 163.805 532.986 267.033" stroke="black"/>
<path d="M633.03 397.824C638.043 548.652 594.019 649.196 535.944 704.03C455.968 662.592 468.802 603.314 465.952 439.925C496.945 240.826 676.153 134.01 721 96.5003C710.176 155.774 632.851 185.617 633.03 397.824Z" fill="#FFCACA" stroke="black"/>
<path d="M518.859 452.819C492.859 613.288 506.197 708.022 532.998 776.409C619.094 733.598 651.579 661.596 692.642 481.844C709.766 261.597 782 221 805 176C784.101 178.078 568.827 219.237 518.859 452.819Z" fill="#FFCACA" stroke="black"/>
<path d="M554.781 397.175C483.843 274.388 462.315 245.734 374.886 169.981L363.972 159.394C347.724 146.551 323.635 140.646 303.345 153.118C286.706 165.258 288.701 195.15 292.5 205.5C303.345 183.5 315.855 167.841 320.454 179.882C357.712 326.672 331.042 283.901 365.977 492.998C400.911 702.095 495.41 811.536 558.335 788.642C685.493 641.916 614.844 502.46 554.781 397.175Z" fill="#FFCACA"/>
<path d="M311.942 161.612C338.364 147.698 351.048 149.459 363.972 159.394M363.972 159.394L374.886 169.981C462.315 245.734 483.843 274.388 554.781 397.175C614.844 502.46 685.493 641.916 558.335 788.642C495.41 811.536 400.911 702.095 365.977 492.998C331.042 283.901 357.712 326.672 320.454 179.882C315.855 167.841 303.345 183.5 292.5 205.5C288.701 195.15 286.706 165.258 303.345 153.118C323.635 140.646 347.724 146.551 363.972 159.394Z" stroke="black"/>
</svg>
