<svg width="760" height="807" viewBox="0 0 760 807" fill="none" xmlns="http://www.w3.org/2000/svg">
<path d="M462.32 394.581C492.784 543.534 509.41 626.476 480.225 700.716C383.982 683.463 347.139 622.541 299.724 459.08C278.573 249.366 298.88 177.467 330.822 43.1518C354.105 39.24 404.483 181.204 462.32 394.581Z" fill="#FFCACA" stroke="black"/>
<path d="M332.205 43.6283C325.424 108.412 335.428 191.213 374 287.754" stroke="black"/>
<path d="M382.164 304.629C442.25 438.529 517.681 590.035 509.379 662.015C422.493 657.461 341.942 544.15 263.95 398.86C188.402 211.376 205.545 133.336 196.235 104.841C215.419 98.4789 283.853 114.494 382.164 304.629Z" fill="#FFCACA" stroke="black"/>
<path d="M196.808 107.127C204.709 125.278 251.565 164.475 352.5 357.253" stroke="black"/>
<path d="M348.321 400.266C314.464 549.561 295.918 632.635 319.247 699.256C407.179 665.686 443.121 600.343 492.946 434.052C520.914 227.674 505.531 161.756 482.225 37.5625C461.291 37.8698 409.685 183.907 348.321 400.266Z" fill="#FFCACA" stroke="black"/>
<path d="M482.537 37.84C465.575 46.2572 439.815 167.203 423.963 271.004" stroke="black"/>
<path d="M419.479 449.579C377.441 606.611 381.166 702.207 400.939 772.947C490.911 739.029 530.486 670.667 589.453 495.967C628.684 278.568 679.205 232.207 706.622 189.754C685.62 189.715 492.729 222.221 419.479 449.579Z" fill="#FFCACA" stroke="black"/>
<path d="M506.04 394.057C496.961 544.695 443.749 640.694 380.813 689.871C305.05 641.152 323.359 583.33 335.763 420.388C385.195 225.048 573.586 135.416 621.737 102.254C605.431 160.259 525.658 182.759 506.04 394.057Z" fill="#FFCACA" stroke="black"/>
<path d="M401.242 424.481C314.527 299.543 258.499 239.958 230.703 224.125C225.995 222.13 198.565 200.875 172.986 206.28C141.055 195.713 134.58 203.929 122.781 216.036C118.12 222.389 100.865 236.694 133.808 272.995L140.412 252.375C143.057 245.375 147.754 238.275 157.923 261.671C211.703 406.939 189.035 456.084 233.352 568.473C269.014 633.374 294.888 681.681 351.515 755.747C388.748 801.734 452.256 773.196 465.196 731.626C490.05 586.999 479.235 550.178 401.242 424.481Z" fill="#FFCACA"/>
<path d="M137.786 236.8C135.247 231.52 156.555 212.619 172.986 206.28M172.986 206.28C198.565 200.875 225.995 222.129 230.703 224.125C258.499 239.958 314.527 299.543 401.242 424.481C479.235 550.178 490.05 586.999 465.196 731.626C452.256 773.196 388.748 801.734 351.515 755.747C294.888 681.681 269.014 633.374 233.352 568.473C189.035 456.084 211.703 406.939 157.923 261.671C147.754 238.275 143.057 245.375 140.412 252.375L133.808 272.995C100.865 236.694 118.12 222.389 122.781 216.036C134.58 203.929 141.055 195.713 172.986 206.28Z" stroke="black"/>
</svg>
