<svg width="863" height="721" viewBox="0 0 863 721" fill="none" xmlns="http://www.w3.org/2000/svg">
<path d="M625.194 45.6351C627.167 42.2543 636.904 33.4353 639.061 31.6572" stroke="black"/>
<path d="M450.137 277.994L451.643 277.423L459.222 274.988L452.733 281.721L450.137 277.994Z" fill="black"/>
<path d="M450.486 279.986L451.431 280.771L450.373 281.157L450.486 279.986Z" fill="black"/>
<path d="M459.932 693.342C435.362 710.884 427 700.892 414.638 671.682C445.546 558.706 469.739 498.941 524.998 397.789C582.268 298.35 656.493 249.326 723.374 226.151C786.115 216.265 822.284 244.042 842.192 276.879C758.82 269.67 717.761 277.496 663.879 403.867C607.587 511.538 579.263 592.686 459.932 693.342Z" fill="#FFCACA" stroke="black"/>
<path d="M315.145 13.2202C264.401 37.3963 309.032 469.858 438.798 658.51C460.967 624.258 458.466 398.11 423.052 180.3C395.123 60.9432 340.588 1.09819 315.145 13.2202Z" fill="#FFCACA" stroke="black"/>
<path d="M313.353 18.578C302.106 12.6163 274.983 147.191 335.097 291.64" stroke="black"/>
<path d="M335.097 291.64C343.525 311.89 356.563 354.835 368.703 375.113" stroke="black"/>
<path d="M842.203 276.612C741.294 231.175 674.086 285.603 516.924 553.111" stroke="black"/>
<path d="M500.175 591.601C242.98 583.077 165.132 221.906 102.629 198.875C98.159 198.983 93.5634 199.242 88.8263 199.655C86.0391 170.06 134.464 120.68 191.311 143.404C255.844 187.824 289.145 260.621 341.008 356.916C417.62 437.909 461.637 482.536 500.175 591.601Z" fill="#FFCACA"/>
<path d="M88.8263 199.655C154.513 166.046 223.79 582.441 500.175 591.601C461.637 482.536 417.62 437.909 341.008 356.916M88.8263 199.655C186.446 191.157 223.938 247.671 341.008 356.916M88.8263 199.655C86.0391 170.06 134.464 120.68 191.311 143.404C255.844 187.824 289.145 260.621 341.008 356.916" stroke="black"/>
<path d="M474.81 263.94C400.137 452.578 311.837 648.016 408.224 621.458C504.611 594.899 571.345 414.358 619.892 238.488C650.469 181.157 698.238 67.765 698.808 63.835C701.014 48.6104 691.213 47.8551 682.045 52.1009C596.286 103.186 547.378 126.405 474.81 263.94Z" fill="#FFCACA" stroke="black"/>
<path d="M691.927 50.052C691.673 49.1044 690.009 49.2218 664.402 68.7598C523.895 170.922 428.54 278.163 400.378 666.466" stroke="black"/>
<path d="M415.327 368.124C418.929 339.78 423.001 329.386 431.524 330.661C440.046 331.937 444.695 339.509 441.982 372.113C439.27 404.716 430.1 410.221 421.578 408.946C413.055 407.67 411.555 397.818 415.327 368.124Z" fill="black"/>
<path d="M426.131 408.264C425.466 408.205 424.802 408.145 424.138 408.086C423.79 412.532 423.421 416.764 422.992 421.179C418.041 477.512 402.506 532.132 393.681 587.995C390.144 609.915 387.466 632.019 385.554 654.159C385.171 658.576 384.833 662.805 384.502 667.284C384.834 667.31 385.166 667.337 385.499 667.363C385.829 662.889 386.168 658.664 386.55 654.251C388.46 632.133 391.135 610.055 394.668 588.159C403.479 532.365 419.3 477.819 424.843 421.38C425.318 416.958 425.734 412.719 426.131 408.264Z" fill="black"/>
<path d="M365.127 387.836C359.162 361.472 361.329 352.501 369.732 351.004C378.135 349.506 384.678 354.548 391.408 383.151C398.138 411.754 391.057 419.225 382.654 420.723C374.186 418.626 371.092 414.2 365.127 387.836Z" fill="black"/>
<path d="M385.822 418.691C385.168 418.815 384.513 418.939 383.858 419.062C384.364 421.643 384.843 424.16 385.313 426.732C390.875 456.24 393.147 486.357 392.019 516.405C391.474 533.177 390.25 549.849 388.819 566.565C388.593 569.195 388.371 571.714 388.133 574.361C388.464 574.39 388.796 574.42 389.127 574.449C389.366 571.8 389.588 569.28 389.814 566.649C391.246 549.923 392.472 533.235 393.018 516.434C394.148 486.341 392.154 456.114 387.131 426.411C386.708 423.823 386.278 421.29 385.822 418.691Z" fill="black"/>
<path d="M462.527 377.287C465.984 348.924 470.003 338.51 478.532 339.742C487.061 340.974 491.748 348.523 489.202 381.14C486.656 413.756 477.514 419.308 468.985 418.076C460.456 416.844 458.906 407 462.527 377.287Z" fill="black"/>
<path d="M473.534 417.371C472.87 417.315 472.205 417.259 471.541 417.203C471.216 421.651 470.868 425.885 470.461 430.302C465.798 486.659 450.542 541.358 442.002 597.265C438.576 619.202 436.011 641.32 434.212 663.469C433.852 667.888 433.535 672.119 433.227 676.599C433.56 676.624 433.892 676.649 434.225 676.674C434.532 672.198 434.849 667.971 435.209 663.556C437.006 641.429 439.568 619.338 442.99 597.424C451.516 541.586 467.059 486.96 472.314 430.493C472.766 426.068 473.161 421.827 473.534 417.371Z" fill="black"/>
<path d="M146.893 477.703C200.783 418.172 221.622 379.641 302.136 353.748C272.088 345.218 255.134 341.303 223.349 346.716C210.277 273.582 129.336 301.56 112.395 319.273C95.4544 336.985 76.3936 430.703 146.893 477.703Z" fill="#FFCACA" stroke="black"/>
<path d="M495.553 330.13C418.64 463.433 419.029 566.236 425.908 697.387C637.819 434.115 638.206 232.786 755.337 245.943C732.086 231.397 734.147 215.199 662.325 226.131C591.397 249.467 547.356 271.001 495.553 330.13Z" fill="#FFCACA" stroke="black"/>
<path d="M270.264 344.962C225.056 368.246 207.69 383.759 191.134 417.259C308.059 532.95 310.852 697.599 430.341 706.9C441.229 441.496 393.639 383.453 270.264 344.962Z" fill="#FFCACA" stroke="black"/>
</svg>
