<svg width="713" height="792" viewBox="0 0 713 792" fill="none" xmlns="http://www.w3.org/2000/svg">
<path d="M461.255 410.709C475.92 570.457 483.747 659.359 446.61 732.299C352.037 699.837 321.613 630.83 291.513 453.417C292.645 231.779 320.639 159.941 366.931 24.8363C390.672 24.2668 426.027 179.732 461.255 410.709Z" fill="#FFCACA" stroke="black"/>
<path d="M368.244 25.483C351.655 69.6565 351.001 112.389 374.281 181.072" stroke="black"/>
<path d="M429.691 429.055C439.802 590.775 445.142 680.738 412.132 749.822C331.451 707.017 306.405 634.543 283.318 453.442C287.727 231.399 268.458 179.535 310.291 49.1337C330.679 51.1396 403.033 193.705 429.691 429.055Z" fill="#FFCACA" stroke="black"/>
<path d="M311.639 50.7882C295.12 60.0312 316.439 138.725 360 335.989" stroke="black"/>
<path d="M356.792 418.652C332.897 579.046 319.893 668.27 347.622 736.535C433.222 693.556 464.779 621.537 503.495 441.841C517.715 221.742 497.969 153.535 466.437 24.5398C445.548 26.6659 403.706 185.151 356.792 418.652Z" fill="#FFCACA" stroke="black"/>
<path d="M466.346 24.6451C453.532 30.0113 441.491 96.7516 442.382 166.776" stroke="black"/>
<path d="M503.07 392.797C511.443 543.477 469.671 644.977 412.832 701.091C331.952 661.446 343.463 601.896 336.972 438.611C363.521 238.871 486 95.9893 530 57.4893C520.5 116.989 498.162 180.648 503.07 392.797Z" fill="#FFCACA" stroke="black"/>
<path d="M380.867 450.572C350.385 610.25 361.066 705.32 385.942 774.431C473.202 734.047 507.69 662.983 553.77 484.451C577.053 264.77 610.123 187.697 619.758 134.965C598.808 136.457 437.355 218.481 380.867 450.572Z" fill="#FFCACA" stroke="black"/>
<path d="M423.675 390.108C368.687 259.397 350.921 228.27 273.677 142.156L264.176 130.284C249.666 115.507 226.507 106.628 204.813 116.459C186.785 126.417 190.331 134.018 192.803 144.763C209.207 132.342 215.38 132.633 218.433 145.157C236.998 295.458 215.899 249.681 224.349 461.508C232.799 673.335 312.834 793.758 378.133 778.932C522.679 649.302 470.068 502.091 423.675 390.108Z" fill="#FFCACA"/>
<path d="M212.279 125.963C240.235 115.471 252.599 118.807 264.176 130.284M264.176 130.284L273.677 142.156C350.921 228.27 368.687 259.397 423.675 390.108C470.068 502.091 522.679 649.302 378.133 778.932C312.834 793.758 232.799 673.335 224.349 461.508C215.899 249.681 236.998 295.458 218.433 145.157C215.38 132.633 209.207 132.342 192.803 144.763C190.331 134.018 186.785 126.417 204.813 116.459C226.507 106.628 249.666 115.507 264.176 130.284Z" stroke="black"/>
</svg>
