<svg width="633" height="768" viewBox="0 0 633 768" fill="none" xmlns="http://www.w3.org/2000/svg">
<path d="M373.762 401.07C381.627 561.296 385.671 650.451 345.47 721.748C252.36 685.298 224.895 615.06 202.359 436.529C212.904 215.139 243.924 144.555 295.913 11.5385C319.657 11.978 348.377 168.805 373.762 401.07Z" fill="#FFCACA" stroke="black"/>
<path d="M297.198 12.2401C278.747 55.669 276.278 98.3352 296.62 167.945" stroke="black"/>
<path d="M341.296 421.515C340.389 583.548 339.602 673.666 301.972 740.345C224.387 692.156 204.326 618.146 193.604 435.894C213.097 214.665 197.398 161.611 248 34.3552C268.205 37.7425 330.699 184.897 341.296 421.515Z" fill="#FFCACA" stroke="black"/>
<path d="M247.747 36.0977C234.259 42.3373 246.809 103.943 270.5 257.855" stroke="black"/>
<path d="M284.552 418.325C281.893 580.468 280.699 670.626 317.14 734.666C396.365 680.835 418.208 605.301 433.028 422.079C418.267 202.016 389.749 136.987 341.576 13.2392C321.146 18.0858 300.445 180.689 284.552 418.325Z" fill="#FFCACA" stroke="black"/>
<path d="M341.5 13.3551C329.5 20.3552 321.936 62.0523 332 131.355" stroke="black"/>
<path d="M398.071 376.163C406.443 526.842 364.671 628.343 307.833 684.457C226.952 644.811 238.463 585.262 231.972 421.977C258.521 222.237 329.391 147.225 386.377 30.4707C407.685 32.561 393.163 164.014 398.071 376.163Z" fill="#FFCACA" stroke="black"/>
<path d="M316.941 424C288.707 584.091 273.289 673.151 299.134 741.905C385.818 700.299 419.304 628.756 462.869 449.594C483.061 229.607 428.305 84.324 437.197 31.4618C416.271 33.2484 370.16 191.137 316.941 424Z" fill="#FFCACA" stroke="black"/>
<path d="M301.616 425.696C318.836 587.044 328.114 676.821 295.885 748.336C208.608 711.043 179.137 640.159 147.378 460.289C143.131 237.487 206.966 108.365 197.487 43.7322C219.188 44.3273 263.89 191.714 301.616 425.696Z" fill="#FFCACA" stroke="black"/>
</svg>
