<svg width="687" height="841" viewBox="0 0 687 841" fill="none" xmlns="http://www.w3.org/2000/svg">
<path d="M346.43 450.603C347.43 613.8 347.654 704.589 304.382 774.892C212.801 732.927 188.337 660.114 173.445 477.544C193.484 253.184 227.541 183.119 285.251 50.7382C308.984 52.443 330.992 213.291 346.43 450.603Z" fill="#FFCACA" stroke="black"/>
<path d="M256.552 456.971C253.893 619.113 252.699 709.271 289.14 773.311C368.365 719.48 390.208 643.946 405.028 460.725C390.267 240.661 361.75 175.632 313.576 51.8844C293.146 56.731 272.445 219.334 256.552 456.971Z" fill="#FFCACA" stroke="black"/>
<path d="M313.296 460.16C312.389 622.193 311.602 712.311 273.972 778.991C196.387 730.801 176.326 656.792 165.604 474.539C185.097 253.31 214.873 186.208 265.475 58.9516C285.679 62.3389 302.699 223.542 313.296 460.16Z" fill="#FFCACA" stroke="black"/>
<path d="M362.193 413.192C370.566 563.872 328.794 665.372 271.955 721.486C191.075 681.841 202.586 622.291 196.095 459.006C222.644 259.266 255.968 197.556 312.955 80.801C334.262 82.8913 357.285 201.043 362.193 413.192Z" fill="#FFCACA" stroke="black"/>
<path d="M274.237 472.524C257.069 634.177 247.807 724.086 278.315 790.902C361.935 743.438 390.426 669.764 421.578 488.032C426.608 267.178 404.069 200.002 367.239 72.6517C346.485 75.8718 311.331 236.555 274.237 472.524Z" fill="#FFCACA" stroke="black"/>
<path d="M299.468 469.845C309.256 631.814 314.399 721.922 278.918 791.881C193.447 750.617 167.264 678.454 143.803 497.315C149.799 274.552 176.923 204.868 222.141 73.2355C243.792 74.8271 272.534 234.377 299.468 469.845Z" fill="#FFCACA" stroke="black"/>
</svg>
