<svg width="621" height="834" viewBox="0 0 621 834" fill="none" xmlns="http://www.w3.org/2000/svg">
<path d="M302.004 446.575C303.004 609.772 303.228 700.562 259.956 770.864C168.375 728.899 143.911 656.086 129.019 473.516C149.058 249.157 183.115 179.091 240.825 46.7107C264.558 48.4154 286.566 209.264 302.004 446.575Z" fill="#FFCACA" stroke="black"/>
<path d="M212.126 452.943C209.467 615.085 208.273 705.244 244.714 769.284C323.939 715.452 345.782 639.918 360.602 456.697C345.842 236.634 317.324 171.604 269.15 47.8569C248.72 52.7035 228.02 215.306 212.126 452.943Z" fill="#FFCACA" stroke="black"/>
<path d="M268.87 456.133C267.964 618.165 267.176 708.284 229.546 774.963C151.961 726.773 131.9 652.764 121.178 470.512C140.672 249.282 170.447 182.18 221.049 54.9241C241.253 58.3114 258.273 219.514 268.87 456.133Z" fill="#FFCACA" stroke="black"/>
<path d="M317.768 409.165C326.14 559.845 284.368 661.345 227.53 717.459C146.649 677.813 158.16 618.264 151.669 454.979C178.218 255.239 211.542 193.528 268.529 76.7738C289.836 78.864 312.86 197.016 317.768 409.165Z" fill="#FFCACA" stroke="black"/>
<path d="M221.703 467.689C211.726 629.944 206.462 720.175 239.905 785.572C321.337 734.444 346.531 659.578 369.587 476.642C364.812 255.783 339.313 189.673 296.869 64.0828C276.278 68.2207 248.289 230.306 221.703 467.689Z" fill="#FFCACA" stroke="black"/>
<path d="M268.096 464.528C271.737 626.752 273.461 716.99 235.354 785.554C151.509 741.08 128.079 667.976 111.502 486.078C125.936 263.703 155.681 195.097 205.856 65.2725C227.431 67.6837 250.105 228.208 268.096 464.528Z" fill="#FFCACA" stroke="black"/>
</svg>
