<svg width="856" height="737" viewBox="0 0 856 737" fill="none" xmlns="http://www.w3.org/2000/svg">
<path d="M338.904 9.51779C288.91 45.016 270.071 478.565 373.621 695.914C400.444 664.599 429.018 431.32 423.61 200.762C412.143 72.9008 367.904 2.01738 338.904 9.51779Z" fill="#FFCACA" stroke="black"/>
<path d="M419.213 290.883L420.719 290.312L428.298 287.878L421.809 294.611L419.213 290.883Z" fill="black"/>
<path d="M419.562 292.876L420.507 293.661L419.45 294.046L419.562 292.876Z" fill="black"/>
<path d="M385.943 309.282C364.544 522.691 331.643 746.18 418.916 697.395C506.188 648.61 522.025 445.394 521.299 251.028C535.538 184.448 551.229 55.5375 550.707 51.3065C548.686 34.9164 538.862 36.2658 531.033 42.703C460.934 114.797 419.329 149.732 385.943 309.282Z" fill="#FFCACA" stroke="black"/>
<path d="M540.082 38.2174C540.087 38.1279 540.066 38.1445 540.082 38.2174Z" fill="#FFCACA"/>
<path d="M540.132 38.3445C539.662 37.4832 542.937 38.5861 522.643 63.5984C410.103 195.939 377.336 319.987 401.728 706.035" stroke="black"/>
<path d="M436.227 689.086C411.405 706.705 391.811 715.948 379.332 686.595C410.578 573.085 435.028 513.04 490.867 411.416C548.738 311.514 633.329 235.366 700.887 212.096C764.261 202.176 788.824 228.799 808.924 261.798C724.716 254.535 685.597 290.592 631.143 417.556C574.259 525.729 556.782 587.975 436.227 689.086Z" fill="#FFCACA" stroke="black"/>
<path d="M462.037 618.328C198.117 519.728 194.86 142.72 130.133 127.378C128.071 127.22 125.996 127.099 123.91 127.015C126.381 99.4752 183.073 71.4657 235.359 111.106C291.422 172.843 311.535 249.526 345.879 353.602C407.441 452.292 443.148 507.28 462.037 618.328Z" fill="#FFCACA"/>
<path d="M123.91 127.015C194.91 119.016 189.914 516.663 462.037 618.328C443.148 507.28 407.441 452.292 345.879 353.602M123.91 127.015C223.41 131.016 295.261 219.825 345.879 353.602M123.91 127.015C126.381 99.4752 183.073 71.4657 235.359 111.106C291.422 172.843 311.535 249.526 345.879 353.602" stroke="black"/>
<path d="M452.792 309.751C380.709 445.727 384.785 548.45 396.363 679.27C598.695 408.566 591.861 207.354 709.389 216.301C685.631 202.599 687.11 186.337 615.727 199.837C545.681 225.702 502.441 248.802 452.792 309.751Z" fill="#FFCACA" stroke="black"/>
<path d="M338.91 12.0155C329.402 3.17555 289.754 80.8109 340.91 329.516" stroke="black"/>
<path d="M808.41 261.517C707.501 216.079 632.072 295.508 474.91 563.017" stroke="black"/>
<path d="M835.41 101.532C838.868 98.8881 852.473 93.9459 855.41 93.0322" stroke="black"/>
<path d="M387.238 349.658C390.839 321.314 394.911 310.92 403.434 312.196C411.956 313.471 416.605 321.044 413.892 353.647C411.18 386.25 402.01 391.755 393.488 390.48C384.965 389.205 383.465 379.352 387.238 349.658Z" fill="black"/>
<path d="M398.04 389.798C397.376 389.739 396.712 389.68 396.048 389.62C395.7 394.067 395.331 398.298 394.902 402.713C389.951 459.046 374.416 513.666 365.591 569.529C362.053 591.449 359.375 613.554 357.463 635.693C357.081 640.11 356.742 644.34 356.411 648.818C356.744 648.845 357.076 648.871 357.408 648.898C357.739 644.423 358.078 640.198 358.459 635.785C360.37 613.667 363.044 591.589 366.578 569.694C375.388 513.9 391.21 459.354 396.753 402.914C397.228 398.492 397.644 394.253 398.04 389.798Z" fill="black"/>
<path d="M388.409 386.288C295.794 273.765 239.081 228.633 210.507 215.515C205.699 213.944 171.88 208.654 146.506 215.515C116.028 208.057 111.975 211.682 96.7638 225.286L96.507 225.516C80.4654 247.979 92.6246 263.918 115.857 300.015L121.006 269.515C123.334 262.7 130.743 248.031 142.006 269.515C202.565 403.545 191.187 419.362 240.752 522.872C279.463 581.962 326.581 636.309 386.715 702.66C426.129 743.716 455.557 713.332 466.607 673.053C484.851 534.287 472.322 500.123 388.409 386.288Z" fill="#FFCACA"/>
<path d="M115.857 255.015C113.07 250.183 130.338 222.64 146.506 215.515M146.506 215.515C171.88 208.654 205.699 213.944 210.507 215.515C239.081 228.633 295.794 273.765 388.409 386.288C472.322 500.123 484.851 534.287 466.607 673.053C455.557 713.332 426.129 743.716 386.715 702.66C326.581 636.308 279.463 581.962 240.752 522.872C191.187 419.362 202.565 403.545 142.006 269.515C130.743 248.031 123.334 262.7 121.006 269.515L115.857 300.015C92.6246 263.918 80.4654 247.979 96.507 225.516C111.931 211.723 115.857 208.016 146.506 215.515Z" stroke="black"/>
</svg>
