<svg width="825" height="726" viewBox="0 0 825 726" fill="none" xmlns="http://www.w3.org/2000/svg">
<path d="M243.99 368.386C277.396 487.597 323.475 520.805 396.128 591.756C439.819 479.391 464.791 429.007 450.792 315.297C412.66 55.9341 242.442 45.4825 204.893 68.8734C183.661 65.5618 171.114 79.9176 164.172 87.9641C128.45 131.996 220.715 3.95766 243.99 368.386Z" fill="#FFCACA" stroke="black"/>
<path d="M574.603 331.086C526.576 434.032 485.112 458.203 416.224 513.007C404.076 406.76 394.518 358.46 426.685 258.075C504.791 29.8641 636.769 41.3381 661.029 66.9423C677.87 66.5705 690.946 92.8709 694.728 100.946C710.065 126.373 656.316 26.6988 574.603 331.086Z" fill="#FFCACA" stroke="black"/>
<path d="M60.7208 216.167C42.3323 221.211 33.2255 235.327 19.9631 288.291C60.0716 255.242 84.1391 247.649 129.596 251.617C107.166 223.249 92.4564 214.225 60.7208 216.167Z" fill="#FFCACA" stroke="black"/>
<path d="M377.607 268.521C396.687 368.785 404.431 443.107 407.108 643.603C342.733 492.376 289.541 445.517 183.842 364.392C154.013 322.457 142.403 210.449 57.4364 217.822C55.8658 217.999 54.2731 218.176 52.6578 218.353C54.276 218.135 55.8687 217.958 57.4364 217.822C105.449 212.415 132.832 207.044 157.067 187.34C277.78 100.264 361.28 198.222 377.607 268.521Z" fill="#FFCACA" stroke="black"/>
<path d="M779.355 276.667C791.855 285.565 794.807 298.969 790.074 343.585C768.955 307.104 752.87 294.691 717.389 285.424C742.258 269.545 755.897 266.548 779.355 276.667Z" fill="#FFCACA" stroke="black"/>
<path d="M525.123 231.193C482.748 303.661 456.175 359.117 398.266 513.66C489.101 414.02 542.387 392.169 644.932 358.036C679.178 333.657 719.179 250.066 781.378 278.84C782.516 279.403 783.671 279.973 784.843 280.548C783.681 279.94 782.525 279.371 781.378 278.84C746.576 261.62 727.366 250.027 714.531 228.189C647.515 127.988 557.065 181.183 525.123 231.193Z" fill="#FFCACA" stroke="black"/>
<path d="M433.328 293.142C436.93 264.797 441.002 254.404 449.525 255.679C458.047 256.954 462.696 264.527 459.983 297.13C457.271 329.734 448.101 335.239 439.579 333.963C431.056 332.688 429.556 322.836 433.328 293.142Z" fill="black"/>
<path d="M444.131 333.283C443.467 333.223 442.803 333.164 442.138 333.105C441.791 337.551 441.422 341.783 440.992 346.198C436.041 402.53 420.506 457.151 411.681 513.013C408.144 534.933 405.466 557.038 403.554 579.177C403.172 583.594 402.833 587.824 402.502 592.302C402.834 592.329 403.167 592.355 403.499 592.382C403.83 587.908 404.168 583.682 404.55 579.269C406.46 557.152 409.135 535.074 412.668 513.178C421.479 457.384 437.301 402.838 442.844 346.398C443.318 341.976 443.735 337.737 444.131 333.283Z" fill="black"/>
<path d="M383.128 312.851C377.163 286.487 379.329 277.517 387.732 276.019C396.136 274.521 402.679 279.564 409.409 308.167C416.139 336.77 409.057 344.241 400.654 345.739C392.187 343.641 389.093 339.215 383.128 312.851Z" fill="black"/>
<path d="M403.823 343.707C403.168 343.831 402.513 343.954 401.859 344.078C402.365 346.659 402.843 349.175 403.314 351.747C408.875 381.256 411.148 411.373 410.02 441.42C409.475 458.193 408.251 474.865 406.82 491.581C406.593 494.211 406.371 496.729 406.133 499.377C406.465 499.406 406.796 499.435 407.128 499.464C407.366 496.816 407.589 494.296 407.815 491.664C409.247 474.939 410.472 458.251 411.018 441.45C412.148 411.357 410.155 381.13 405.132 351.427C404.708 348.838 404.278 346.305 403.823 343.707Z" fill="black"/>
<path d="M505.197 304.385C513.943 277.184 519.854 267.715 527.998 270.533C536.141 273.352 539.32 281.65 530.667 313.201C522.013 344.751 511.988 348.479 503.845 345.66C495.701 342.841 496.036 332.881 505.197 304.385Z" fill="black"/>
<path d="M508.445 345.826C507.803 345.646 507.161 345.466 506.519 345.285C505.361 349.592 504.221 353.684 502.988 357.945C487.776 412.411 462.475 463.249 443.541 516.541C436.039 537.439 429.347 558.676 423.402 580.087C422.215 584.359 421.105 588.455 419.957 592.796C420.279 592.883 420.601 592.97 420.923 593.058C422.07 588.72 423.178 584.629 424.364 580.361C430.303 558.97 436.987 537.759 444.481 516.884C463.388 463.657 488.958 412.945 504.771 358.483C506.05 354.223 507.238 350.132 508.445 345.826Z" fill="black"/>
<path d="M474.61 717.102C561.357 677.394 615.047 466.984 638.454 410.51C617.967 346.458 592.194 338.868 539.393 338.89C499.572 347.754 475.946 366.21 430.009 438.72C408.705 585.062 385.178 678.362 474.61 717.102Z" fill="#FFCACA" stroke="black"/>
<path d="M646.248 279.043C555.558 267.128 507.479 305.603 426.178 448.14C463.755 421.432 485.465 404.967 509.499 409.733C561.069 434.165 589.066 433.206 637.61 409.142C689.086 414.06 718.871 454.127 677.409 540.245C783.895 463.166 779.658 285.662 646.248 279.043Z" fill="#FFCACA" stroke="black"/>
<path d="M321.685 341.961C264.37 359.623 241.573 372.934 217.612 404.212C344.924 533.297 328.706 697.21 471.768 720.91C516.478 458.554 465.963 395.13 321.685 341.961Z" fill="#FFCACA" stroke="black"/>
<path d="M175.95 509.859C246.266 430.865 260.769 384.75 360.457 354.65C324.802 340.512 304.608 333.788 265.663 338.966C256.064 236.005 155.68 268.982 133.66 292.418C111.641 315.853 67.2699 477.626 175.95 509.859Z" fill="#FFCACA" stroke="black"/>
</svg>
