<svg width="653" height="797" viewBox="0 0 653 797" fill="none" xmlns="http://www.w3.org/2000/svg">
<path d="M403.256 405.721C417.92 565.468 425.747 654.37 388.611 727.311C294.037 694.849 263.613 625.841 233.514 448.428C234.645 226.79 262.639 154.952 308.931 19.8475C332.672 19.2781 368.027 174.744 403.256 405.721Z" fill="#FFCACA" stroke="black"/>
<path d="M310.244 20.4937C293.655 64.6672 293.001 107.4 316.281 176.082" stroke="black"/>
<path d="M371.691 424.066C381.801 585.786 387.142 675.749 354.132 744.833C273.451 702.028 248.405 629.554 225.318 448.453C229.727 226.41 210.458 174.546 252.291 44.1447C272.679 46.1506 345.033 188.716 371.691 424.066Z" fill="#FFCACA" stroke="black"/>
<path d="M253.639 45.7994C237.12 55.0424 258.439 133.736 302 331" stroke="black"/>
<path d="M301.245 418.88C288.946 580.576 282.392 670.504 314.958 736.599C397.246 687.575 423.543 613.474 449.235 431.459C447.591 210.907 422.991 144.297 382.264 17.9026C361.582 21.5254 331.246 182.609 301.245 418.88Z" fill="#FFCACA" stroke="black"/>
<path d="M382.181 18.014C369.786 24.2878 362.576 91.7212 368.5 161.5" stroke="black"/>
<path d="M445.071 387.808C453.443 538.487 411.671 639.988 354.833 696.102C273.952 656.456 285.463 596.907 278.972 433.622C305.521 233.882 376.391 158.87 433.377 42.1157C454.685 44.206 440.163 175.659 445.071 387.808Z" fill="#FFCACA" stroke="black"/>
<path d="M350.102 452.003C326.809 612.887 314.14 702.38 342.089 770.306C427.452 726.051 458.719 653.511 496.748 473.093C510.159 252.589 472.698 122.936 479.958 69.8247C459.097 72.2546 396.127 217.612 350.102 452.003Z" fill="#FFCACA" stroke="black"/>
<path d="M328.192 445.965C353.48 606.602 367.238 696.005 337.287 770.121C245.434 739.085 205.924 676.777 164.762 498.619C132.405 300.791 215.95 128.053 182.949 86.5994C215.526 74.2247 278.351 213.947 328.192 445.965Z" fill="#FFCACA" stroke="black"/>
</svg>
