<svg width="633" height="770" viewBox="0 0 633 770" fill="none" xmlns="http://www.w3.org/2000/svg">
<path d="M376.234 401.07C384.099 561.296 388.143 650.451 347.942 721.748C254.832 685.298 227.367 615.06 204.831 436.529C215.376 215.139 246.396 144.555 298.385 11.5385C322.129 11.978 350.848 168.805 376.234 401.07Z" fill="#FFCACA" stroke="black"/>
<path d="M299.67 12.2401C281.219 55.669 278.75 98.3352 299.092 167.945" stroke="black"/>
<path d="M343.768 421.515C342.861 583.548 342.074 673.666 304.444 740.345C226.859 692.156 206.798 618.146 196.076 435.894C215.569 214.665 199.87 161.611 250.472 34.3552C270.677 37.7425 333.171 184.897 343.768 421.515Z" fill="#FFCACA" stroke="black"/>
<path d="M250.219 36.0977C236.73 42.3373 249.281 103.943 272.972 257.855" stroke="black"/>
<path d="M287.024 418.325C284.365 580.468 283.171 670.626 319.612 734.666C398.837 680.835 420.68 605.301 435.5 422.079C420.739 202.016 392.221 136.987 344.048 13.2392C323.618 18.0858 302.917 180.689 287.024 418.325Z" fill="#FFCACA" stroke="black"/>
<path d="M343.972 13.3551C331.972 20.3552 324.408 62.0523 334.472 131.355" stroke="black"/>
<path d="M400.543 376.163C408.915 526.842 367.143 628.343 310.304 684.457C229.424 644.811 240.935 585.262 234.444 421.977C260.993 222.237 331.863 147.225 388.849 30.4707C410.157 32.561 395.634 164.014 400.543 376.163Z" fill="#FFCACA" stroke="black"/>
<path d="M319.413 423.999C291.178 584.091 275.76 673.151 301.606 741.905C388.29 700.299 421.775 628.756 465.34 449.594C485.532 229.607 452.08 98.8621 460.972 45.9999C440.046 47.7864 372.631 191.137 319.413 423.999Z" fill="#FFCACA" stroke="black"/>
<path d="M304.088 425.696C321.308 587.044 330.586 676.821 298.357 748.336C211.081 711.043 175.731 646.37 143.972 466.5C121.594 267.711 209.972 102 179.972 58.5001C211.972 48.5 266.362 191.714 304.088 425.696Z" fill="#FFCACA" stroke="black"/>
</svg>
