<svg width="831" height="744" viewBox="0 0 831 744" fill="none" xmlns="http://www.w3.org/2000/svg">
<path d="M338.904 9.51779C288.91 45.016 270.071 478.565 373.621 695.914C400.444 664.599 429.018 431.32 423.61 200.762C412.143 72.9008 367.904 2.01738 338.904 9.51779Z" fill="#FFCACA" stroke="black"/>
<path d="M419.213 290.882L420.719 290.311L428.298 287.877L421.809 294.61L419.213 290.882Z" fill="black"/>
<path d="M419.562 292.875L420.507 293.66L419.45 294.045L419.562 292.875Z" fill="black"/>
<path d="M385.943 309.282C364.544 522.691 331.643 746.18 418.916 697.395C506.188 648.61 522.025 445.394 521.299 251.028C535.538 184.448 551.229 55.5375 550.707 51.3065C548.686 34.9164 538.862 36.2658 531.033 42.703C460.934 114.797 419.329 149.732 385.943 309.282Z" fill="#FFCACA" stroke="black"/>
<path d="M540.082 38.2174C540.066 38.1445 540.087 38.1279 540.082 38.2174V38.2174Z" fill="#FFCACA"/>
<path d="M540.132 38.3445C539.662 37.4832 542.937 38.5861 522.643 63.5984C410.103 195.939 377.336 319.987 401.728 706.035" stroke="black"/>
<path d="M436.227 689.085C411.405 706.704 391.811 715.947 379.332 686.594C410.578 573.084 435.028 513.039 490.867 411.415C548.738 311.513 633.329 235.365 700.887 212.095C764.261 202.175 788.824 228.798 808.924 261.797C724.716 254.534 685.597 290.591 631.143 417.555C574.259 525.728 556.782 587.974 436.227 689.085Z" fill="#FFCACA" stroke="black"/>
<path d="M462.037 618.327C198.117 519.727 194.86 142.719 130.133 127.377C128.071 127.219 125.996 127.098 123.91 127.014C126.381 99.4743 183.073 71.4647 235.359 111.105C291.422 172.842 311.535 249.525 345.879 353.601C407.441 452.291 443.148 507.279 462.037 618.327Z" fill="#FFCACA"/>
<path d="M123.91 127.014C194.91 119.015 189.914 516.662 462.037 618.327C443.148 507.279 407.441 452.291 345.879 353.601M123.91 127.014C223.41 131.015 295.261 219.824 345.879 353.601M123.91 127.014C126.381 99.4743 183.073 71.4647 235.359 111.105C291.422 172.842 311.535 249.525 345.879 353.601" stroke="black"/>
<path d="M338.91 12.0165C329.402 3.17653 289.754 80.8119 340.91 329.517" stroke="black"/>
<path d="M808.41 261.516C707.501 216.078 632.072 295.507 474.91 563.016" stroke="black"/>
<path d="M386.328 360.143C389.929 331.798 394.001 321.405 402.524 322.68C411.046 323.955 415.695 331.528 412.982 364.131C410.27 396.735 401.1 402.24 392.578 400.964C384.055 399.689 382.555 389.837 386.328 360.143Z" fill="black"/>
<path d="M397.131 400.283C396.466 400.223 395.802 400.164 395.138 400.105C394.79 404.551 394.421 408.783 393.992 413.198C389.041 469.53 373.506 524.151 364.681 580.013C361.143 601.933 358.466 624.038 356.553 646.177C356.171 650.594 355.832 654.824 355.501 659.302C355.834 659.329 356.166 659.355 356.499 659.382C356.829 654.908 357.168 650.682 357.549 646.269C359.46 624.152 362.135 602.074 365.668 580.178C374.478 524.384 390.3 469.838 395.843 413.398C396.318 408.976 396.734 404.737 397.131 400.283Z" fill="black"/>
<path d="M327.932 360.721C321.967 334.358 324.134 325.387 332.537 323.889C340.94 322.391 347.483 327.434 354.213 356.037C360.943 384.64 353.862 392.111 345.459 393.609C336.991 391.512 333.897 387.085 327.932 360.721Z" fill="black"/>
<path d="M348.627 391.577C347.972 391.701 347.317 391.824 346.662 391.948C347.169 394.529 347.647 397.045 348.118 399.618C353.679 429.126 355.951 459.243 354.824 489.29C354.279 506.063 353.055 522.735 351.624 539.451C351.397 542.081 351.175 544.599 350.937 547.247C351.269 547.276 351.6 547.305 351.932 547.335C352.17 544.686 352.393 542.166 352.619 539.534C354.051 522.809 355.276 506.121 355.822 489.32C356.952 459.227 354.959 429 349.936 399.297C349.512 396.708 349.082 394.175 348.627 391.577Z" fill="black"/>
<path d="M427.527 349.313C430.983 320.951 435.003 310.536 443.532 311.768C452.061 313 456.748 320.549 454.202 353.166C451.655 385.783 442.514 391.334 433.985 390.102C425.456 388.871 423.906 379.026 427.527 349.313Z" fill="black"/>
<path d="M438.534 389.397C437.87 389.341 437.205 389.285 436.541 389.229C436.216 393.677 435.868 397.911 435.461 402.328C430.798 458.685 415.542 513.384 407.002 569.291C403.576 591.229 401.011 613.347 399.212 635.495C398.852 639.914 398.535 644.146 398.227 648.626C398.56 648.651 398.892 648.675 399.225 648.7C399.532 644.224 399.849 639.997 400.209 635.582C402.006 613.456 404.568 591.364 407.99 569.451C416.516 513.612 432.059 458.986 437.314 402.519C437.766 398.095 438.161 393.854 438.534 389.397Z" fill="black"/>
<path d="M452.792 309.751C380.709 445.727 384.785 548.45 396.363 679.27C598.695 408.566 591.861 207.354 709.389 216.301C685.631 202.599 687.11 186.337 615.727 199.837C545.681 225.702 502.441 248.802 452.792 309.751Z" fill="#FFCACA" stroke="black"/>
<path d="M400.323 402.123C319.39 289.114 267.8 243.018 240.985 229.145C236.419 227.429 203.808 220.957 178.415 226.629C149.256 218.182 144.985 221.545 128.951 234.17L128.68 234.383C111.079 255.585 121.605 271.555 141.235 307.553L148.874 278.111C151.732 271.579 160.227 257.613 169.404 278.937C217.161 411.588 204.687 426.514 244.303 529.07C277.101 588.024 318.524 642.698 371.647 709.553C406.673 751.007 438.037 722.632 452.281 683.918C481.968 549.762 472.637 516.064 400.323 402.123Z" fill="#FFCACA"/>
<path d="M145.078 263.815C142.766 259.009 162 232.918 178.415 226.629M178.415 226.629C203.808 220.957 236.419 227.429 240.985 229.145C267.8 243.018 319.39 289.114 400.323 402.123C472.637 516.064 481.968 549.762 452.281 683.918C438.037 722.632 406.673 751.007 371.647 709.553C318.524 642.698 277.101 588.024 244.303 529.07C204.687 426.514 217.161 411.588 169.404 278.937C160.227 257.613 151.732 271.579 148.874 278.111L141.235 307.553C121.605 271.555 111.079 255.585 128.68 234.383C144.937 221.583 149.092 218.134 178.415 226.629Z" stroke="black"/>
</svg>
