<svg width="765" height="719" viewBox="0 0 765 719" fill="none" xmlns="http://www.w3.org/2000/svg">
<path d="M527.195 45.6341C529.168 42.2533 538.905 33.4343 541.062 31.6562" stroke="black"/>
<path d="M352.138 277.992L353.643 277.421L361.223 274.986L354.734 281.719L352.138 277.992Z" fill="black"/>
<path d="M352.487 279.984L353.432 280.77L352.374 281.155L352.487 279.984Z" fill="black"/>
<path d="M369.151 676.197C344.33 693.817 324.736 703.06 312.257 673.707C343.503 560.197 367.953 500.152 423.792 398.528C481.662 298.626 556.646 249.385 624.204 226.115C687.578 216.195 724.103 244.113 744.204 277.112C659.996 269.85 618.522 277.703 564.067 404.668C507.183 512.841 489.706 575.087 369.151 676.197Z" fill="#FFCACA" stroke="black"/>
<path d="M217.146 13.2211C166.309 37.2483 221.909 487.268 357.923 685.922C379.564 650.825 371.603 415.938 330.494 189.01C299.331 64.4754 242.636 1.1738 217.146 13.2211Z" fill="#FFCACA" stroke="black"/>
<path d="M215.354 18.5774C204.106 12.6157 185.886 215.57 246.001 360.018" stroke="black"/>
<path d="M744.204 276.609C643.295 231.172 576.087 285.6 418.925 553.108" stroke="black"/>
<path d="M376.811 263.939C302.137 452.577 213.837 648.015 310.224 621.457C406.611 594.898 473.346 414.357 521.892 238.487C552.47 181.156 600.239 67.764 600.808 63.834C603.015 48.6095 593.214 47.8541 584.046 52.1C498.287 103.185 449.378 126.404 376.811 263.939Z" fill="#FFCACA" stroke="black"/>
<path d="M593.927 50.0511C593.673 49.1034 592.01 49.2208 566.402 68.7588C425.896 170.921 330.54 278.162 302.379 666.465" stroke="black"/>
<path d="M20.7449 236.093C10.6947 240.631 6.56253 250.258 2.90222 284.856C23.2197 260.955 36.3017 254.386 62.3417 253.605C47.5713 237.219 38.5819 232.555 20.7449 236.093Z" fill="#FFCACA" stroke="black"/>
<path d="M267.617 280.456C293.701 378.005 307.934 451.007 331.808 649.906C264.084 506.619 216.593 465.811 123.522 396.633C95.1383 358.12 88.6977 221.459 21.9388 237.623C20.8302 237.928 19.711 238.237 18.581 238.55C19.717 238.198 20.8361 237.89 21.9388 237.623C60.125 227.088 85.6935 220.205 102.941 197.932C184.769 132.85 246.977 212.379 267.617 280.456Z" fill="#FFCACA" stroke="black"/>
<path d="M338.343 354.159C341.944 325.815 346.017 315.421 354.539 316.697C363.062 317.972 367.711 325.544 364.998 358.148C362.285 390.751 353.116 396.256 344.593 394.981C336.07 393.706 334.57 383.853 338.343 354.159Z" fill="black"/>
<path d="M349.146 394.299C348.482 394.24 347.817 394.181 347.153 394.121C346.806 398.568 346.436 402.799 346.007 407.214C341.056 463.547 325.521 518.167 316.696 574.03C313.159 595.95 310.481 618.055 308.569 640.194C308.187 644.611 307.848 648.841 307.517 653.319C307.849 653.346 308.181 653.372 308.514 653.399C308.844 648.924 309.183 644.699 309.565 640.286C311.475 618.168 314.15 596.09 317.683 574.195C326.494 518.401 342.315 463.855 347.858 407.415C348.333 402.993 348.75 398.754 349.146 394.299Z" fill="black"/>
<path d="M288.143 373.871C282.178 347.507 284.344 338.536 292.748 337.039C301.151 335.541 307.694 340.584 314.424 369.187C321.154 397.79 314.073 405.261 305.669 406.758C297.202 404.661 294.108 400.235 288.143 373.871Z" fill="black"/>
<path d="M308.838 404.726C308.183 404.85 307.528 404.974 306.874 405.097C307.38 407.678 307.859 410.195 308.329 412.767C313.89 442.276 316.163 472.392 315.035 502.44C314.49 519.212 313.266 535.885 311.835 552.6C311.609 555.231 311.386 557.749 311.148 560.396C311.48 560.426 311.811 560.455 312.143 560.484C312.382 557.835 312.604 555.316 312.83 552.684C314.262 535.958 315.487 519.271 316.033 502.47C317.163 472.376 315.17 442.149 310.147 412.446C309.723 409.858 309.293 407.325 308.838 404.726Z" fill="black"/>
<path d="M385.543 363.322C388.999 334.96 393.018 324.545 401.548 325.777C410.077 327.009 414.764 334.558 412.218 367.175C409.671 399.792 400.53 405.343 392.001 404.111C383.472 402.879 381.922 393.035 385.543 363.322Z" fill="black"/>
<path d="M396.55 403.406C395.886 403.35 395.221 403.294 394.556 403.238C394.232 407.686 393.884 411.92 393.477 416.337C388.814 472.694 373.557 527.393 365.017 583.3C361.592 605.238 359.027 627.355 357.228 649.504C356.868 653.923 356.551 658.155 356.243 662.635C356.575 662.659 356.908 662.684 357.24 662.709C357.548 658.233 357.865 654.006 358.224 649.591C360.022 627.464 362.584 605.373 366.005 583.459C374.531 527.621 390.075 472.995 395.33 416.528C395.782 412.103 396.176 407.862 396.55 403.406Z" fill="black"/>
<path d="M421.978 335.867C345.065 469.17 345.454 571.973 352.333 703.125C564.244 439.852 564.631 238.523 681.762 251.68C658.511 237.135 660.572 220.936 588.75 231.868C517.821 255.204 473.781 276.738 421.978 335.867Z" fill="#FFCACA" stroke="black"/>
<path d="M191.87 340.239C146.663 363.524 129.297 379.037 112.741 412.536C229.666 528.228 232.459 692.876 351.948 702.178C362.836 436.773 315.246 378.73 191.87 340.239Z" fill="#FFCACA" stroke="black"/>
<path d="M88.9812 521.771C138.823 436.188 146.177 388.875 224.869 348.992C194.282 338.487 177.083 333.814 145.696 342.848C127.737 241.4 48.7584 284.212 33.023 309.718C17.2876 335.224 -3.18668 500.553 88.9812 521.771Z" fill="#FFCACA" stroke="black"/>
</svg>
