<svg width="755" height="847" viewBox="0 0 755 847" fill="none" xmlns="http://www.w3.org/2000/svg">
<path d="M379.799 450.318C380.017 610.738 379.806 699.983 336.252 769.283C244.986 728.436 220.901 656.968 206.901 477.566C227.988 256.931 262.338 187.905 320.609 57.5187C344.304 59.0895 365.515 217.107 379.799 450.318Z" fill="#FFCACA" stroke="black"/>
<path d="M291.91 463.751C289.251 625.893 288.057 716.052 324.498 780.092C403.723 726.261 425.566 650.726 440.386 467.505C425.626 247.442 397.108 182.413 348.934 58.6651C328.504 63.5117 307.803 226.115 291.91 463.751Z" fill="#FFCACA" stroke="black"/>
<path d="M348.654 466.941C347.748 628.973 346.96 719.092 309.33 785.771C231.745 737.581 211.684 663.572 200.962 481.32C220.456 260.09 204.756 207.037 255.358 79.7808C275.563 83.1681 338.057 230.322 348.654 466.941Z" fill="#FFCACA" stroke="black"/>
<path d="M405.429 421.589C413.801 572.268 372.029 673.769 315.191 729.883C234.311 690.237 245.821 630.688 239.33 467.403C265.879 267.663 336.749 192.651 393.735 75.8966C415.043 77.9868 400.521 209.439 405.429 421.589Z" fill="#FFCACA" stroke="black"/>
<path d="M324.299 469.425C296.065 629.516 280.647 718.577 306.492 787.331C393.177 745.724 426.662 674.182 470.227 495.02C490.419 275.033 435.663 129.75 444.555 76.8875C423.629 78.674 377.518 236.563 324.299 469.425Z" fill="#FFCACA" stroke="black"/>
<path d="M308.974 471.121C326.194 632.47 335.472 722.247 303.243 793.762C215.967 756.469 186.495 685.585 154.736 505.715C150.49 282.912 214.325 153.79 204.845 89.1578C226.546 89.753 271.248 237.14 308.974 471.121Z" fill="#FFCACA" stroke="black"/>
</svg>
