<svg width="707" height="811" viewBox="0 0 707 811" fill="none" xmlns="http://www.w3.org/2000/svg">
<path d="M452.198 393.327C482.662 542.28 499.288 625.222 470.103 699.462C373.86 682.209 337.017 621.287 289.602 457.826C268.451 248.112 288.758 176.213 320.7 41.8979C343.984 37.9861 394.361 179.951 452.198 393.327Z" fill="#FFCACA" stroke="black"/>
<path d="M322.083 42.3744C315.302 107.158 324.928 173.959 363.5 270.5" stroke="black"/>
<path d="M414.368 390.264C456.467 530.859 479.615 609.149 461.992 679.431C376.443 663.578 338.008 606.188 279.641 451.964C239.286 253.916 210.497 213.216 224.231 86.1592C244.081 82.3544 341.708 188.926 414.368 390.264Z" fill="#FFCACA" stroke="black"/>
<path d="M225.95 87.4242C212.267 100.504 305 216 344.088 351.473" stroke="black"/>
<path d="M335.867 427.25C312.905 587.78 300.42 677.077 328.546 745.18C413.894 701.704 445.033 629.503 482.702 449.585C495.642 229.407 475.5 161.316 443.219 32.5061C422.342 34.7536 381.423 193.479 335.867 427.25Z" fill="#FFCACA" stroke="black"/>
<path d="M443.125 32.624C428.769 42.7226 410.907 163.804 400.986 267.032" stroke="black"/>
<path d="M501.03 397.824C506.043 548.652 462.019 649.196 403.944 704.03C323.968 662.592 336.802 603.314 333.952 439.925C364.945 240.826 544.153 134.01 589 96.5003C578.176 155.774 500.851 185.617 501.03 397.824Z" fill="#FFCACA" stroke="black"/>
<path d="M386.859 452.819C360.859 613.288 374.197 708.022 400.998 776.409C487.094 733.598 519.579 661.596 560.642 481.844C577.766 261.597 650 221 673 176C652.101 178.078 436.827 219.237 386.859 452.819Z" fill="#FFCACA" stroke="black"/>
<path d="M394.332 429.894C315.283 299.969 262.938 237.125 236.144 219.65C231.564 217.375 205.461 194.51 179.604 198.368C148.366 185.9 141.409 193.712 128.903 205.088C123.869 211.15 105.786 224.392 136.486 262.608L144.318 242.422C147.38 235.593 152.494 228.788 161.238 252.753C206.19 400.991 180.61 448.685 218.091 563.534C249.788 630.462 272.711 680.236 324.784 757.572C359.186 805.714 424.293 781.045 439.709 740.328C473.211 597.456 464.629 560.052 394.332 429.894Z" fill="#FFCACA"/>
<path d="M142.633 226.717C140.416 221.294 162.822 203.708 179.604 198.368M179.604 198.368C205.461 194.51 231.564 217.375 236.144 219.65C262.938 237.125 315.283 299.969 394.332 429.894C464.628 560.052 473.211 597.456 439.709 740.328C424.293 781.045 359.186 805.714 324.784 757.572C272.711 680.236 249.788 630.462 218.091 563.534C180.61 448.685 206.19 400.991 161.238 252.753C152.494 228.788 147.38 235.593 144.318 242.422L136.486 262.608C105.786 224.392 123.869 211.15 128.903 205.088C141.409 193.712 148.366 185.9 179.604 198.368Z" stroke="black"/>
</svg>
