<svg width="829" height="740" viewBox="0 0 829 740" fill="none" xmlns="http://www.w3.org/2000/svg">
<path d="M339.933 8.88304C284.735 68.5819 269.166 481.048 372.716 698.396C399.54 667.081 428.114 433.803 422.705 203.244C411.238 75.3833 383.148 35.8641 339.933 8.88304Z" fill="#FFCACA" stroke="black"/>
<path d="M418.303 293.368L419.809 292.797L427.388 290.362L420.899 297.095L418.303 293.368Z" fill="black"/>
<path d="M418.652 295.36L419.597 296.146L418.54 296.531L418.652 295.36Z" fill="black"/>
<path d="M539.172 40.7018C539.177 40.6122 539.156 40.6289 539.172 40.7018Z" fill="#FFCACA"/>
<path d="M539.222 40.8289C538.752 39.9675 542.027 41.0705 521.733 66.0828C409.193 198.423 376.426 322.471 400.818 708.52" stroke="black"/>
<path d="M385.033 311.766C363.634 525.175 330.733 748.664 418.006 699.879C505.278 651.094 521.115 447.879 520.389 253.513C534.628 186.933 550.319 58.0218 549.797 53.7909C547.776 37.4008 537.951 38.7502 530.123 45.1874C460.024 117.281 418.419 152.217 385.033 311.766Z" fill="#FFCACA" stroke="black"/>
<path d="M344.096 11.9991C333.097 2.99908 284.919 78.7915 344.096 332" stroke="black"/>
<path d="M360.042 359.854C360.023 331.282 362.746 320.456 371.361 320.641C379.977 320.826 385.548 327.749 386.988 360.433C388.428 393.118 380.03 399.74 371.414 399.555C362.798 399.369 360.062 389.787 360.042 359.854Z" fill="black"/>
<path d="M375.844 398.302C375.178 398.327 374.511 398.352 373.845 398.378C374.064 402.832 374.233 407.077 374.367 411.51C376.593 468.016 368.104 524.165 366.428 580.695C365.697 602.887 365.841 625.153 366.749 647.356C366.93 651.786 367.13 656.024 367.369 660.508C367.702 660.493 368.035 660.477 368.368 660.461C368.129 655.981 367.929 651.746 367.749 647.321C366.842 625.14 366.697 602.9 367.428 580.734C369.099 524.273 377.882 468.162 376.229 411.475C376.14 407.028 376.016 402.77 375.844 398.302Z" fill="black"/>
<path d="M461.127 620.813C189.004 519.148 206.479 146.358 137.949 112.949C140.42 85.4093 182.163 73.9505 234.449 113.591C290.512 175.328 310.625 252.01 344.97 356.087C406.531 454.776 442.239 509.765 461.127 620.813Z" fill="#FFCACA"/>
<path d="M137.949 112.949C206.479 146.358 189.004 519.148 461.127 620.813C442.239 509.765 406.531 454.776 344.97 356.087M137.949 112.949C249.788 164.178 294.351 222.31 344.97 356.087M137.949 112.949C140.42 85.4093 182.163 73.9505 234.449 113.591C290.512 175.328 310.625 252.01 344.97 356.087" stroke="black"/>
<path d="M434.807 692.388C409.985 710.008 390.391 719.251 377.912 689.898C409.158 576.388 433.608 516.343 489.447 414.719C547.318 314.817 631.909 238.669 699.467 215.399C762.841 205.479 787.404 232.102 807.504 265.101C723.296 257.838 684.177 293.894 629.723 420.859C572.839 529.032 555.362 591.278 434.807 692.388Z" fill="#FFCACA" stroke="black"/>
<path d="M809.5 263C694.035 179.937 614.725 283.295 467.5 527" stroke="black"/>
<path d="M438.479 289.236C366.396 425.211 370.472 527.934 382.05 658.754C584.382 388.051 577.548 186.838 695.076 195.785C671.318 182.083 672.797 165.821 601.414 179.322C531.368 205.187 488.128 228.286 438.479 289.236Z" fill="#FFCACA" stroke="black"/>
<path d="M387.499 388.773C294.884 276.249 238.171 231.117 209.597 218C204.789 216.428 170.971 211.138 145.596 218C115.118 210.542 111.066 214.166 95.8539 227.771L95.597 228.001C79.5555 250.463 91.7146 266.402 114.947 302.5L120.096 272C122.424 265.185 129.833 250.516 141.096 272C201.655 406.029 190.277 421.846 239.842 525.357C278.553 584.446 325.671 638.793 385.805 705.144C425.219 746.2 454.647 715.816 465.697 675.537C483.941 536.771 471.412 502.608 387.499 388.773Z" fill="#FFCACA"/>
<path d="M114.947 257.499C112.16 252.667 129.428 225.124 145.596 218M145.596 218C170.971 211.138 204.789 216.428 209.597 218C238.171 231.117 294.884 276.249 387.499 388.773C471.412 502.608 483.941 536.771 465.697 675.537C454.647 715.816 425.219 746.2 385.805 705.144C325.671 638.793 278.553 584.446 239.842 525.357C190.277 421.846 201.655 406.029 141.096 272C129.833 250.516 122.424 265.185 120.096 272L114.947 302.5C91.7146 266.402 79.5555 250.463 95.597 228.001C111.021 214.207 114.947 210.5 145.596 218Z" stroke="black"/>
</svg>
