<svg width="822" height="741" viewBox="0 0 822 741" fill="none" xmlns="http://www.w3.org/2000/svg">
<path d="M331.336 8.88304C276.137 68.5819 260.569 481.048 364.119 698.396C390.943 667.081 419.517 433.803 414.108 203.244C402.641 75.3833 374.551 35.8641 331.336 8.88304Z" fill="#FFCACA" stroke="black"/>
<path d="M409.706 293.368L411.212 292.797L418.791 290.362L412.302 297.095L409.706 293.368Z" fill="black"/>
<path d="M410.055 295.36L411 296.146L409.943 296.531L410.055 295.36Z" fill="black"/>
<path d="M376.436 311.766C355.036 525.175 322.136 748.664 409.408 699.879C496.681 651.094 512.518 447.879 511.792 253.513C526.031 186.933 541.722 58.0218 541.2 53.7909C539.179 37.4008 529.354 38.7502 521.526 45.1874C451.426 117.281 409.822 152.217 376.436 311.766Z" fill="#FFCACA" stroke="black"/>
<path d="M530.575 40.7018C530.58 40.6122 530.559 40.6289 530.575 40.7018Z" fill="#FFCACA"/>
<path d="M530.625 40.8289C530.155 39.9675 533.43 41.0705 513.136 66.0828C400.596 198.423 367.829 322.471 392.221 708.52" stroke="black"/>
<path d="M451.94 655.776C178.624 517.567 221.925 139.344 153.624 96.5719C158.038 68.7801 201.801 62.3721 252.952 109.446C306.492 179.549 321.997 260.351 350.298 370.911C406.992 479.42 440.028 540.058 451.94 655.776Z" fill="#FFCACA"/>
<path d="M153.624 96.5719C221.925 139.344 178.624 517.567 451.94 655.776C440.028 540.058 406.992 479.42 350.298 370.911M153.624 96.5719C265.313 163.014 307.255 227.98 350.298 370.911M153.624 96.5719C158.038 68.7801 201.801 62.3721 252.952 109.446C306.492 179.549 321.997 260.351 350.298 370.911" stroke="black"/>
<path d="M335.499 11.9994C324.5 2.99936 287.322 64.7912 346.499 317.999" stroke="black"/>
<path d="M426.379 697.389C403.785 717.786 385.404 729.253 369.583 701.558C387.362 585.176 404.635 522.687 448.227 415.239C494.038 309.264 569.161 223.76 633.54 192.761C695.322 175.51 722.825 199.083 746.641 229.51C662.161 232.128 627.519 272.505 588.26 404.959C544.395 519.034 534.305 582.895 426.379 697.389Z" fill="#FFCACA" stroke="black"/>
<path d="M750 230.501C685.5 164.499 625 168.499 447.5 497.501" stroke="black"/>
<path d="M352.042 324.854C352.023 296.282 354.746 285.456 363.361 285.641C371.977 285.826 377.548 292.749 378.988 325.433C380.428 358.118 372.03 364.74 363.414 364.555C354.799 364.369 352.062 354.787 352.042 324.854Z" fill="black"/>
<path d="M367.844 363.303C367.178 363.328 366.512 363.353 365.845 363.378C366.064 367.833 366.234 372.078 366.367 376.511C368.594 433.017 360.104 489.166 358.428 545.696C357.697 567.888 357.841 590.153 358.749 612.357C358.93 616.787 359.13 621.025 359.369 625.509C359.702 625.493 360.035 625.478 360.368 625.462C360.129 620.982 359.929 616.747 359.749 612.322C358.842 590.141 358.697 567.901 359.428 545.734C361.099 489.274 369.882 433.163 368.229 376.476C368.14 372.029 368.016 367.771 367.844 363.303Z" fill="black"/>
<path d="M429.882 240.236C357.799 376.211 361.875 478.934 373.453 609.754C575.785 339.051 568.951 137.838 686.479 146.785C662.721 133.083 664.2 116.821 592.817 130.322C522.771 156.187 479.531 179.286 429.882 240.236Z" fill="#FFCACA" stroke="black"/>
<path d="M391.837 389.201C310.923 267.991 257.61 209.708 230.489 193.802C225.862 191.759 199.374 170.727 173.441 175.02C134.369 164.593 134.841 165.517 118.116 177.701C99.9116 198.449 109.225 208.37 128.736 246.607L138.499 217.645C141.496 211.097 146.556 204.521 155.617 227.022C202.487 366.43 192.298 402.413 231.278 510.356C263.894 573.016 305.349 631.796 358.556 703.822C393.673 748.609 425.987 721.315 441.005 682.342C473.016 546.091 463.962 510.847 391.837 389.201Z" fill="#FFCACA"/>
<path d="M136.625 202.801C134.335 197.714 156.643 180.494 173.441 175.02M173.441 175.02C199.374 170.727 225.862 191.759 230.489 193.802C257.61 209.708 310.923 267.991 391.837 389.201C463.962 510.847 473.016 546.091 441.005 682.342C425.987 721.315 393.673 748.609 358.556 703.822C305.349 631.796 263.894 573.016 231.278 510.356C192.298 402.413 202.487 366.43 155.617 227.022C146.556 204.521 141.496 211.097 138.499 217.645L128.736 246.607C109.225 208.37 99.9116 198.449 118.116 177.701C134.841 165.517 134.369 164.593 173.441 175.02Z" stroke="black"/>
</svg>
