<svg width="835" height="777" viewBox="0 0 835 777" fill="none" xmlns="http://www.w3.org/2000/svg">
<path d="M343.07 9.51779C293.076 45.016 274.236 478.565 377.787 695.914C404.61 664.599 433.184 431.32 427.775 200.762C416.309 72.9008 372.07 2.01738 343.07 9.51779Z" fill="#FFCACA" stroke="black"/>
<path d="M423.379 290.883L424.884 290.312L432.464 287.878L425.974 294.611L423.379 290.883Z" fill="black"/>
<path d="M423.728 292.876L424.673 293.661L423.615 294.046L423.728 292.876Z" fill="black"/>
<path d="M390.109 309.283C368.709 522.692 335.809 746.181 423.081 697.396C510.354 648.611 526.19 445.395 525.465 251.029C539.703 184.449 555.395 55.5384 554.873 51.3075C552.852 34.9174 543.027 36.2668 535.199 42.704C465.099 114.798 423.495 149.733 390.109 309.283Z" fill="#FFCACA" stroke="black"/>
<path d="M544.248 38.2184C544.232 38.1455 544.253 38.1288 544.248 38.2184V38.2184Z" fill="#FFCACA"/>
<path d="M544.298 38.3455C543.828 37.4841 547.103 38.5871 526.808 63.5994C414.269 195.94 381.502 319.988 405.894 706.036" stroke="black"/>
<path d="M440.392 689.086C415.571 706.705 395.977 715.948 383.498 686.595C414.744 573.085 439.194 513.04 495.033 411.416C552.903 311.514 637.495 235.366 705.053 212.096C768.427 202.176 792.989 228.799 813.09 261.798C728.882 254.535 689.763 290.592 635.308 417.556C578.424 525.729 560.947 587.975 440.392 689.086Z" fill="#FFCACA" stroke="black"/>
<path d="M459.684 587.956C201.696 518.526 180.335 150.22 117.49 141.836C115.504 141.892 113.508 141.986 111.502 142.117C112.54 114.936 165.578 81.7523 217.662 115.167C274.439 169.803 297.445 242.727 335.431 340.982C399.271 431.187 436.19 481.305 459.684 587.956Z" fill="#FFCACA"/>
<path d="M111.502 142.117C179.236 127.037 193.678 516.368 459.684 587.956C436.19 481.305 399.271 431.187 335.431 340.982M111.502 142.117C207.161 135.857 280.394 215.349 335.431 340.982M111.502 142.117C112.54 114.936 165.578 81.7523 217.662 115.167C274.439 169.803 297.445 242.727 335.431 340.982" stroke="black"/>
<path d="M343.076 12.0174C333.568 3.17751 293.92 80.8129 345.076 329.518" stroke="black"/>
<path d="M812.576 261.517C711.667 216.079 647.328 298.492 490.166 566" stroke="black"/>
<path d="M391.493 348.143C395.095 319.798 399.167 309.405 407.69 310.68C416.212 311.955 420.861 319.528 418.148 352.131C415.436 384.735 406.266 390.24 397.743 388.964C389.221 387.689 387.721 377.837 391.493 348.143Z" fill="black"/>
<path d="M402.296 388.283C401.632 388.223 400.968 388.164 400.304 388.105C399.956 392.551 399.587 396.783 399.157 401.198C394.207 457.53 378.671 512.151 369.846 568.013C366.309 589.933 363.631 612.038 361.719 634.177C361.337 638.594 360.998 642.824 360.667 647.302C361 647.329 361.332 647.355 361.664 647.382C361.995 642.908 362.333 638.682 362.715 634.269C364.625 612.152 367.3 590.074 370.833 568.178C379.644 512.384 395.466 457.838 401.009 401.398C401.484 396.976 401.9 392.737 402.296 388.283Z" fill="black"/>
<path d="M341.293 367.853C335.328 341.489 337.495 332.519 345.898 331.021C354.301 329.523 360.844 334.566 367.574 363.169C374.304 391.772 367.223 399.243 358.82 400.741C350.352 398.643 347.258 394.217 341.293 367.853Z" fill="black"/>
<path d="M361.988 398.709C361.333 398.833 360.679 398.956 360.024 399.08C360.53 401.661 361.009 404.177 361.479 406.749C367.04 436.258 369.313 466.374 368.185 496.422C367.64 513.194 366.416 529.867 364.985 546.583C364.759 549.213 364.537 551.731 364.298 554.379C364.63 554.408 364.962 554.437 365.293 554.466C365.532 551.817 365.754 549.298 365.98 546.666C367.412 529.941 368.638 513.253 369.183 496.452C370.314 466.359 368.32 436.131 363.297 406.429C362.873 403.84 362.444 401.307 361.988 398.709Z" fill="black"/>
<path d="M438.693 357.304C442.149 328.942 446.168 318.528 454.697 319.76C463.227 320.991 467.914 328.54 465.367 361.157C462.821 393.774 453.68 399.326 445.151 398.094C436.622 396.862 435.071 387.017 438.693 357.304Z" fill="black"/>
<path d="M449.7 397.388C449.036 397.332 448.371 397.276 447.707 397.221C447.382 401.669 447.034 405.902 446.627 410.319C441.964 466.676 426.707 521.375 418.167 577.282C414.742 599.22 412.177 621.338 410.378 643.487C410.018 647.906 409.701 652.137 409.393 656.617C409.725 656.642 410.058 656.667 410.39 656.691C410.698 652.216 411.015 647.988 411.374 643.574C413.172 621.447 415.734 599.355 419.155 577.442C427.681 521.604 443.225 466.978 448.48 410.51C448.932 406.086 449.327 401.845 449.7 397.388Z" fill="black"/>
<path d="M459.214 323.631C387.342 459.718 391.578 562.434 403.359 693.237C605.27 422.219 598.124 221.017 715.666 229.782C691.886 216.116 693.34 199.852 621.977 213.464C551.972 239.437 508.768 262.604 459.214 323.631Z" fill="#FFCACA" stroke="black"/>
<path d="M198.472 275.508L210.749 303.422C210.914 303.798 211.287 304.04 211.701 304.032C233.553 303.6 268.491 303.404 288.227 315.978C354.393 324.041 396.723 380.74 407.128 432.084C418.131 533.744 450.49 629.032 431.559 687.788C431.538 687.855 431.508 687.92 431.473 687.98C405.513 732.429 387.888 724.295 360.597 700.479C360.526 700.418 360.468 700.354 360.418 700.276C311.815 625.997 217.167 352.001 217.167 352.001C217.167 352.001 209.418 351.488 188.714 379.436C188.684 379.478 188.648 379.519 188.611 379.556C165.191 402.453 152.915 426.211 137.863 446.137C137.533 446.574 136.904 446.657 136.459 446.319C110.204 426.325 86.8967 392.579 86.8698 347.35C86.8698 347.298 86.8743 347.243 86.8826 347.192C95.6536 293.043 91.691 281.014 126.562 261.06C126.629 261.022 126.704 260.99 126.778 260.968C155.121 252.635 186.16 248.663 198.472 275.508Z" fill="#FFCACA"/>
<path d="M217.167 352.001C217.167 352.001 209.418 351.488 188.714 379.436C188.684 379.478 188.648 379.519 188.611 379.556C165.191 402.453 152.915 426.211 137.863 446.137C137.533 446.574 136.904 446.657 136.459 446.319C110.204 426.325 86.8967 392.579 86.8698 347.35C86.8698 347.298 86.8743 347.243 86.8826 347.192C95.6536 293.043 91.691 281.014 126.562 261.06C126.629 261.022 126.704 260.99 126.778 260.968C155.121 252.635 186.16 248.663 198.472 275.508L210.749 303.422C210.914 303.798 211.287 304.04 211.701 304.032C233.553 303.6 268.491 303.404 288.227 315.978M217.167 352.001C217.167 352.001 311.815 625.997 360.418 700.276C360.468 700.354 360.526 700.418 360.597 700.479C387.888 724.295 405.513 732.429 431.473 687.98C431.508 687.92 431.538 687.855 431.559 687.788C450.49 629.032 418.131 533.744 407.128 432.084C396.723 380.74 354.393 324.041 288.227 315.978M217.167 352.001C217.167 352.001 251.237 322.835 288.227 315.978" stroke="black"/>
</svg>
