<svg width="779" height="797" viewBox="0 0 779 797" fill="none" xmlns="http://www.w3.org/2000/svg">
<path d="M366.121 315.857L367.066 316.643L366.008 317.028L366.121 315.857Z" fill="black"/>
<path d="M382.785 712.071C357.964 729.69 338.37 738.933 325.89 709.58C357.136 596.07 381.587 536.025 437.426 434.401C495.296 334.499 570.279 285.258 637.837 261.988C701.211 252.068 737.737 279.986 757.837 312.986C673.629 305.723 632.155 313.577 577.701 440.541C520.817 548.714 503.34 610.96 382.785 712.071Z" fill="#FFCACA" stroke="black"/>
<path d="M182.729 73.1362C184.948 135.259 186.501 361.476 383.995 719.221C404.445 683.236 388.053 448.158 338.696 222.303C302.98 98.6821 184.948 63.0131 182.729 73.1362Z" fill="#FFCACA" stroke="black"/>
<path d="M757.837 312.482C656.928 267.045 589.721 321.473 432.559 588.981" stroke="black"/>
<path d="M399.798 261.566C316.835 446.707 214.189 673.24 311.659 650.981C409.129 628.722 483.803 451.317 540.099 277.773C561.836 219.209 636.607 115.367 640.552 114.597C655.193 111.741 629.052 103.074 610.348 107.25C552.215 120.226 478.393 127.384 399.798 261.566Z" fill="#FFCACA" stroke="black"/>
<path d="M34.3762 271.961C24.326 276.499 20.1939 286.126 16.5336 320.724C36.851 296.824 49.933 290.254 75.973 289.474C61.2026 273.087 52.2133 268.423 34.3762 271.961Z" fill="#FFCACA" stroke="black"/>
<path d="M281.249 316.324C307.332 413.873 321.566 486.875 345.439 685.775C277.715 542.487 230.224 501.679 137.153 432.501C108.77 393.989 102.329 257.327 35.5701 273.491C34.4616 273.797 33.3423 274.105 32.2124 274.418C33.3483 274.066 34.4675 273.758 35.5701 273.491C73.7564 262.957 99.3248 256.073 116.572 233.8C198.4 168.718 260.609 248.247 281.249 316.324Z" fill="#FFCACA" stroke="black"/>
<path d="M361.328 375.142C364.929 346.797 369.001 336.404 377.524 337.679C386.047 338.954 390.696 346.527 387.983 379.13C385.27 411.734 376.101 417.239 367.578 415.963C359.055 414.688 357.555 404.836 361.328 375.142Z" fill="black"/>
<path d="M372.131 415.282C371.466 415.222 370.802 415.163 370.138 415.104C369.79 419.55 369.421 423.782 368.992 428.197C364.041 484.529 348.506 539.15 339.681 595.012C336.144 616.932 333.466 639.037 331.554 661.176C331.171 665.593 330.833 669.823 330.502 674.301C330.834 674.328 331.166 674.354 331.499 674.381C331.829 669.907 332.168 665.681 332.55 661.268C334.46 639.151 337.135 617.073 340.668 595.177C349.479 539.383 365.3 484.837 370.843 428.397C371.318 423.975 371.734 419.736 372.131 415.282Z" fill="black"/>
<path d="M311.127 394.853C305.162 368.489 307.329 359.519 315.732 358.021C324.135 356.523 330.678 361.566 337.408 390.169C344.138 418.772 337.057 426.243 328.654 427.741C320.186 425.643 317.092 421.217 311.127 394.853Z" fill="black"/>
<path d="M331.822 425.709C331.168 425.833 330.513 425.956 329.858 426.08C330.364 428.661 330.843 431.177 331.313 433.749C336.875 463.258 339.147 493.374 338.019 523.422C337.474 540.194 336.25 556.867 334.819 573.583C334.593 576.213 334.371 578.731 334.133 581.379C334.464 581.408 334.796 581.437 335.127 581.466C335.366 578.817 335.588 576.298 335.814 573.666C337.246 556.941 338.472 540.253 339.018 523.452C340.148 493.359 338.154 463.131 333.131 433.429C332.708 430.84 332.278 428.307 331.822 425.709Z" fill="black"/>
<path d="M408.527 384.304C411.984 355.942 416.003 345.528 424.532 346.76C433.061 347.991 437.748 355.54 435.202 388.157C432.656 420.774 423.514 426.326 414.985 425.094C406.456 423.862 404.906 414.017 408.527 384.304Z" fill="black"/>
<path d="M416.896 420.994C416.253 420.819 415.609 420.644 414.966 420.469C413.844 424.786 412.739 428.887 411.543 433.159C396.796 487.752 371.928 538.804 353.449 592.255C346.125 613.216 339.615 634.509 333.852 655.971C332.702 660.252 331.627 664.357 330.516 668.708C330.839 668.793 331.161 668.877 331.484 668.961C332.594 664.614 333.667 660.513 334.817 656.236C340.574 634.796 347.076 613.528 354.392 592.59C372.845 539.204 397.982 488.275 413.33 433.68C414.573 429.41 415.726 425.31 416.896 420.994Z" fill="black"/>
<path d="M447.511 426.463C358.131 534.053 349.078 610.029 333.01 729.47C424.966 793.704 597.358 387.956 694.344 389.91C676.548 372.962 681.067 358.689 616.7 356.729C551.024 366.105 502.556 381.65 447.511 426.463Z" fill="#FFCACA" stroke="black"/>
<path d="M636.84 346.549C571.799 323.037 529.925 342.483 446.331 430.562C478.503 417.76 497.261 409.626 514.232 417.003C548.304 442.953 569.149 446.908 608.987 437.806C646.211 449.837 661.605 483.317 616.757 537.802C708.158 500.528 734.321 373.366 636.84 346.549Z" fill="#FFCACA" stroke="black"/>
<path d="M207.941 375.851C162.733 399.135 145.367 404.195 128.811 437.695C245.736 553.386 248.529 728.488 368.018 737.789C399.439 511.789 331.316 414.342 207.941 375.851Z" fill="#FFCACA" stroke="black"/>
<path d="M102.613 557.639C152.454 472.056 159.809 424.743 238.5 384.861C207.913 374.355 190.715 369.682 159.328 378.717C141.369 277.268 62.3898 320.081 46.6544 345.587C30.919 371.093 10.4447 536.421 102.613 557.639Z" fill="#FFCACA" stroke="black"/>
</svg>
