<svg width="867" height="808" viewBox="0 0 867 808" fill="none" xmlns="http://www.w3.org/2000/svg">
<path d="M584.377 394.266C617.924 542.556 636.267 625.135 608.629 699.964C512.048 684.711 473.949 624.567 423.154 462.124C397.657 252.895 416.468 180.59 445.617 45.6407C468.814 41.2467 522.126 182.136 584.377 394.266Z" fill="#FFCACA" stroke="black"/>
<path d="M447.01 46.0884C441.574 110.999 451.691 172.159 492.258 267.879" stroke="black"/>
<path d="M546.368 392.92C588.467 533.516 611.616 611.806 593.992 682.087C508.443 666.234 470.008 608.845 411.642 454.62C371.286 256.572 342.497 215.872 356.231 88.8154C376.081 85.0107 473.708 191.582 546.368 392.92Z" fill="#FFCACA" stroke="black"/>
<path d="M357.95 90.0806C344.267 103.16 384.585 174.023 476.088 354.129" stroke="black"/>
<path d="M475.625 425.136C454.357 585.9 442.815 675.324 471.657 743.126C556.542 698.752 586.917 626.227 622.687 445.922C633.304 225.62 612.445 157.745 578.806 29.2825C557.955 31.7501 518.712 190.899 475.625 425.136Z" fill="#FFCACA" stroke="black"/>
<path d="M578.714 29.4014C564.466 39.6508 554.832 143.171 546 246.499" stroke="black"/>
<path d="M632.78 403.897C626.382 554.673 574.886 651.604 512.834 701.892C436.217 654.529 453.494 596.39 462.998 433.253C508.948 237.065 659.108 124.274 706.661 90.2602C691.389 148.546 648.637 192.284 632.78 403.897Z" fill="#FFCACA" stroke="black"/>
<path d="M518.859 455.475C492.859 615.944 506.197 710.678 532.998 779.065C619.095 736.255 651.579 664.252 692.643 484.5C709.767 264.254 757.846 190.638 766 137.657C745.101 139.735 568.827 221.893 518.859 455.475Z" fill="#FFCACA" stroke="black"/>
<path d="M554.781 399.832C483.843 277.045 462.315 248.391 374.886 172.637L363.972 162.05C347.724 149.208 323.635 143.303 303.345 155.775C286.706 167.915 294.701 181.306 298.5 191.657C313.218 177.278 315.855 170.497 320.454 182.539C357.712 329.328 331.042 286.557 365.977 495.654C400.911 704.752 495.41 814.192 558.335 791.299C685.493 644.572 614.844 505.117 554.781 399.832Z" fill="#FFCACA"/>
<path d="M311.942 164.269C338.364 150.355 351.048 152.115 363.972 162.05M363.972 162.05L374.886 172.637C462.315 248.391 483.843 277.045 554.781 399.832C614.844 505.117 685.493 644.572 558.335 791.299C495.41 814.192 400.911 704.752 365.977 495.654C331.042 286.557 357.712 329.328 320.454 182.539C315.855 170.497 313.218 177.278 298.5 191.657C294.701 181.306 286.706 167.915 303.345 155.775C323.635 143.303 347.724 149.208 363.972 162.05Z" stroke="black"/>
</svg>
