<svg width="867" height="805" viewBox="0 0 867 805" fill="none" xmlns="http://www.w3.org/2000/svg">
<path d="M584.198 393.327C614.662 542.28 631.288 625.222 602.103 699.462C505.86 682.209 469.017 621.287 421.602 457.826C400.451 248.112 420.758 176.213 452.7 41.8979C475.984 37.9861 526.361 179.951 584.198 393.327Z" fill="#FFCACA" stroke="black"/>
<path d="M454.083 42.3745C447.302 107.158 456.149 168.516 494.721 265.056" stroke="black"/>
<path d="M546.293 393.841C582.357 536.104 602.145 615.31 581.541 684.776C496.746 665.289 460.793 606.312 409.057 449.739C377.185 250.15 350.159 208.259 369.299 81.9036C389.293 78.949 482.286 189.587 546.293 393.841Z" fill="#FFCACA" stroke="black"/>
<path d="M370.962 83.241C356.734 95.7255 393.994 168.244 477.731 352.088" stroke="black"/>
<path d="M492.007 433.854C488.404 595.978 486.686 686.128 522.754 750.379C602.291 697.009 624.573 621.604 640.459 438.472C626.978 218.326 598.839 153.132 551.387 29.1065C530.929 33.8341 509.282 196.314 492.007 433.854Z" fill="#FFCACA" stroke="black"/>
<path d="M551.308 29.2345C538.262 40.9773 533.899 129.405 536.392 233.079" stroke="black"/>
<path d="M633.03 397.823C638.043 548.652 594.019 649.196 535.945 704.03C455.968 662.591 468.803 603.313 465.952 439.924C496.945 240.826 630.653 116.01 675.5 78.5003C664.676 137.774 632.851 185.617 633.03 397.823Z" fill="#FFCACA" stroke="black"/>
<path d="M518.859 452.819C492.859 613.288 506.197 708.021 532.999 776.409C619.095 733.598 651.579 661.596 692.643 481.844C709.767 261.597 740.666 183.629 748.82 130.648C727.921 132.726 568.827 219.237 518.859 452.819Z" fill="#FFCACA" stroke="black"/>
<path d="M554.781 397.175C483.843 274.388 462.315 245.734 374.886 169.981L363.972 159.394C347.724 146.551 323.635 140.646 303.344 153.118C286.706 165.258 291.177 172.354 294.976 182.705C309.695 168.325 315.855 167.841 320.454 179.882C357.712 326.672 331.042 283.901 365.977 492.998C400.911 702.095 495.41 811.536 558.335 788.642C685.493 641.916 614.844 502.46 554.781 397.175Z" fill="#FFCACA"/>
<path d="M311.942 161.612C338.363 147.698 351.048 149.459 363.972 159.394M363.972 159.394L374.886 169.981C462.315 245.734 483.843 274.388 554.781 397.175C614.844 502.46 685.493 641.916 558.335 788.642C495.41 811.536 400.911 702.095 365.977 492.998C331.042 283.901 357.712 326.672 320.454 179.882C315.855 167.841 309.695 168.325 294.976 182.705C291.177 172.354 286.706 165.258 303.344 153.118C323.635 140.646 347.724 146.551 363.972 159.394Z" stroke="black"/>
</svg>
