<svg width="813" height="805" viewBox="0 0 813 805" fill="none" xmlns="http://www.w3.org/2000/svg">
<path d="M476.32 400.116C506.784 549.069 523.41 632.011 494.225 706.251C397.982 688.998 361.139 628.076 313.724 464.615C292.573 254.901 312.88 183.002 344.822 48.687C368.105 44.7752 418.483 186.74 476.32 400.116Z" fill="#FFCACA" stroke="black"/>
<path d="M346.205 49.1634C340.827 120.347 351.98 194.114 392.88 301.27" stroke="black"/>
<path d="M395.591 309.93C456.606 443.409 533.09 594.387 525.289 666.423C438.373 662.474 357.036 549.725 278.035 404.982C201.184 218.028 217.784 139.871 208.276 111.442C227.415 104.946 295.959 120.484 395.591 309.93Z" fill="#FFCACA" stroke="black"/>
<path d="M208.864 113.723C217.179 132.478 327.533 198.099 377.075 348.726" stroke="black"/>
<path d="M363.693 386.572C324.175 527.957 302.477 606.646 323.153 671.924C412.093 644.702 450.443 584.024 506.534 427.233C542.39 230.718 529.607 166.567 511.181 46.0255C490.305 45.1294 433.221 182.377 363.693 386.572Z" fill="#FFCACA" stroke="black"/>
<path d="M511.481 46.3091C494.25 53.4239 463.897 168.056 444.084 266.795" stroke="black"/>
<path d="M458.708 459.324C406.209 609.956 403.362 704.122 418.156 775.236C509.83 749.506 553.813 685.72 624.335 519.166C678.18 309.031 700.365 253.373 730.5 214C709.645 212.195 547.02 242.274 458.708 459.324Z" fill="#FFCACA" stroke="black"/>
<path d="M529.451 393.036C506.231 536.875 447.176 623.734 383.628 664.613C317.695 610.118 340.441 556.408 367.968 401.082C433.22 218.377 617.804 151.337 665.985 124.349C645.09 178.437 568.443 191.974 529.451 393.036Z" fill="#FFCACA" stroke="black"/>
<path d="M409.282 423.097C310.945 307.084 249.443 253.168 220.251 240.084C215.373 238.551 186.025 220.036 161.085 227.878C128.285 220.432 122.631 229.234 112.052 242.42C108.024 249.192 92.2265 265.092 128.51 298.054L133.098 276.894C135.058 269.671 139.049 262.152 151.423 284.461C218.935 423.878 201.103 474.977 256.031 582.579C297.774 643.746 328.177 689.339 391.67 757.61C433.156 799.8 493.622 765.283 502.501 722.661C513.32 576.313 499.011 540.704 409.282 423.097Z" fill="#FFCACA"/>
<path d="M128.986 261.644C125.95 256.632 145.341 235.769 161.085 227.878M161.085 227.878C186.025 220.036 215.373 238.551 220.251 240.084C249.443 253.168 310.945 307.084 409.282 423.097C499.011 540.704 513.32 576.313 502.501 722.661C493.622 765.283 433.156 799.8 391.67 757.61C328.177 689.339 297.774 643.746 256.031 582.579C201.103 474.977 218.935 423.878 151.423 284.461C139.049 262.152 135.058 269.671 133.098 276.894L128.51 298.054C92.2265 265.092 108.024 249.192 112.052 242.42C122.631 229.234 128.285 220.432 161.085 227.878Z" stroke="black"/>
<path d="M729 215C646.438 240.436 604.007 261.06 546 327" stroke="black"/>
</svg>
