<svg width="837" height="769" viewBox="0 0 837 769" fill="none" xmlns="http://www.w3.org/2000/svg">
<path d="M600.491 50.5238C602.465 47.1429 612.201 38.3239 614.359 36.5459" stroke="black"/>
<path d="M425.434 282.883L426.94 282.312L434.519 279.878L428.03 286.611L425.434 282.883Z" fill="black"/>
<path d="M425.783 284.876L426.728 285.661L425.671 286.046L425.783 284.876Z" fill="black"/>
<path d="M442.448 681.086C417.626 698.705 398.032 707.948 385.553 678.595C416.799 565.085 441.249 505.04 497.088 403.416C554.959 303.514 639.55 227.366 707.108 204.096C770.482 194.176 795.045 220.799 815.145 253.798C730.937 246.535 691.818 282.592 637.364 409.556C580.48 517.729 563.003 579.975 442.448 681.086Z" fill="#FFCACA" stroke="black"/>
<path d="M342.604 9.35865C288.655 25.2086 273.77 478.406 377.32 695.755C404.144 664.439 432.718 431.161 427.309 200.603C415.843 72.7418 369.654 1.41147 342.604 9.35865Z" fill="#FFCACA" stroke="black"/>
<path d="M340.003 14.3723C328.388 5.66771 275.26 150.752 347.221 329" stroke="black"/>
<path d="M814.631 253.517C713.722 208.079 649.383 290.492 492.221 558" stroke="black"/>
<path d="M482.364 572.563C218.07 519.175 170.286 151.996 106.514 147.524C104.521 147.704 102.521 147.922 100.514 148.179C99.6166 120.918 150.561 84.4095 205.303 114.597C266.279 165.723 294.615 237.254 339.819 333.196C410.435 419.472 451.128 467.316 482.364 572.563Z" fill="#FFCACA"/>
<path d="M100.514 148.179C167.524 128.868 209.856 517.516 482.364 572.563C451.128 467.316 410.435 419.472 339.819 333.196M100.514 148.179C196.225 135.952 275.519 210.924 339.819 333.196M100.514 148.179C99.6166 120.918 150.561 84.4095 205.303 114.597C266.279 165.723 294.615 237.254 339.819 333.196" stroke="black"/>
<path d="M385.628 289.294C357.412 490.203 317.551 700.926 404.989 652.444C492.426 603.962 514.83 412.791 520.654 230.437C536.891 167.522 556.653 46.0764 556.282 42.1226C554.846 26.8062 545.143 28.3771 537.23 34.6599C465.891 104.481 423.815 138.551 385.628 289.294Z" fill="#FFCACA" stroke="black"/>
<path d="M546.303 30.2184C546.308 30.1288 546.287 30.1455 546.303 30.2184Z" fill="#FFCACA"/>
<path d="M546.353 30.3455C545.883 29.4841 549.158 30.5871 528.863 55.5994C416.324 187.94 383.557 311.988 407.949 698.036" stroke="black"/>
<path d="M461.269 315.632C389.398 451.719 393.633 554.435 405.415 685.238C607.326 414.22 600.179 213.018 717.721 221.783C693.942 208.117 695.395 191.853 624.033 205.465C554.027 231.438 510.823 254.605 461.269 315.632Z" fill="#FFCACA" stroke="black"/>
<path d="M396.549 367.142C400.15 338.797 404.222 328.404 412.745 329.679C421.268 330.954 425.916 338.527 423.204 371.13C420.491 403.734 411.321 409.239 402.799 407.963C394.276 406.688 392.776 396.836 396.549 367.142Z" fill="black"/>
<path d="M407.352 407.282C406.688 407.222 406.023 407.163 405.359 407.104C405.012 411.55 404.642 415.782 404.213 420.197C399.262 476.529 383.727 531.15 374.902 587.012C371.365 608.932 368.687 631.037 366.775 653.176C366.393 657.593 366.054 661.823 365.723 666.301C366.055 666.328 366.387 666.354 366.72 666.381C367.051 661.907 367.389 657.681 367.771 653.268C369.681 631.151 372.356 609.073 375.889 587.177C384.7 531.383 400.521 476.837 406.064 420.397C406.539 415.975 406.956 411.736 407.352 407.282Z" fill="black"/>
<path d="M200.528 267.509L212.804 295.423C212.969 295.799 213.342 296.041 213.756 296.033C235.608 295.601 270.547 295.405 290.283 307.978C356.448 316.042 398.778 372.741 409.184 424.085C420.187 525.745 452.545 621.033 433.614 679.789C433.593 679.856 433.563 679.921 433.528 679.981C407.568 724.43 389.943 716.296 362.652 692.48C362.582 692.419 362.523 692.354 362.473 692.277C313.87 617.998 219.222 344.002 219.222 344.002C219.222 344.002 211.473 343.489 190.77 371.437C190.739 371.479 190.703 371.52 190.666 371.557C167.246 394.454 154.97 418.212 139.918 438.138C139.588 438.575 138.959 438.658 138.514 438.32C112.259 418.326 88.9518 384.58 88.925 339.351C88.925 339.299 88.9295 339.244 88.9378 339.193C97.7088 285.044 93.7462 273.015 128.617 253.061C128.685 253.023 128.759 252.991 128.834 252.969C157.177 244.636 188.215 240.664 200.528 267.509Z" fill="#FFCACA"/>
<path d="M219.222 344.002C219.222 344.002 211.473 343.489 190.77 371.437C190.739 371.479 190.703 371.52 190.666 371.557C167.246 394.454 154.97 418.212 139.918 438.138C139.588 438.575 138.959 438.658 138.514 438.32C112.259 418.326 88.9518 384.58 88.925 339.351C88.925 339.299 88.9295 339.244 88.9378 339.193C97.7088 285.044 93.7462 273.015 128.617 253.061C128.685 253.023 128.759 252.991 128.834 252.969C157.177 244.636 188.215 240.664 200.528 267.509L212.804 295.423C212.969 295.799 213.342 296.041 213.756 296.033C235.608 295.601 270.547 295.405 290.283 307.978M219.222 344.002C219.222 344.002 313.87 617.998 362.473 692.277C362.523 692.354 362.582 692.419 362.652 692.48C389.943 716.296 407.568 724.43 433.528 679.981C433.563 679.921 433.593 679.856 433.614 679.789C452.545 621.033 420.187 525.745 409.184 424.085C398.778 372.741 356.448 316.042 290.283 307.978M219.222 344.002C219.222 344.002 253.292 314.836 290.283 307.978" stroke="black"/>
</svg>
